<svg width="18" height="18" viewBox="0 0 18 18" fill="none" xmlns="http://www.w3.org/2000/svg">
<path d="M2.25 7.3905C2.25 6.6225 2.8725 6 3.6405 6C4.167 6 4.6485 5.70225 4.884 5.23125L5.49975 3.99975C5.58225 3.83475 5.6235 3.75225 5.67075 3.681C5.79117 3.49621 5.95085 3.34024 6.13844 3.22422C6.32602 3.10819 6.53688 3.03497 6.756 3.00975C6.8415 3 6.93375 3 7.11825 3H10.8817C11.0662 3 11.1593 3 11.2433 3.00975C11.4625 3.03486 11.6735 3.10804 11.8612 3.22407C12.0489 3.3401 12.2088 3.49612 12.3292 3.681C12.3765 3.75225 12.4177 3.83475 12.5002 3.99975L13.1152 5.23125C13.2305 5.46266 13.4082 5.65725 13.6282 5.79308C13.8482 5.92891 14.1017 6.00058 14.3602 6C15.1275 6 15.75 6.6225 15.75 7.3905V11.1428C15.75 12.6465 15.75 13.398 15.405 13.9478C15.2251 14.2337 14.9831 14.4754 14.697 14.655C14.148 15 13.3965 15 11.8928 15H6.10725C4.6035 15 3.852 15 3.30225 14.655C3.01634 14.4751 2.77461 14.2331 2.595 13.947C2.25 13.398 2.25 12.6465 2.25 11.1428V7.3905Z" stroke="black"/>
<path d="M9 12.375C10.4497 12.375 11.625 11.1997 11.625 9.75C11.625 8.30025 10.4497 7.125 9 7.125C7.55025 7.125 6.375 8.30025 6.375 9.75C6.375 11.1997 7.55025 12.375 9 12.375Z" stroke="black"/>
</svg>
